<svg xmlns="http://www.w3.org/2000/svg" xmlns:xlink="http://www.w3.org/1999/xlink" width="500" zoomAndPan="magnify" viewBox="0 0 375 374.999991" height="500" preserveAspectRatio="xMidYMid meet" version="1.0"><defs><clipPath id="bfb514f21c"><path d="M 0 27.476562 L 375 27.476562 L 375 361.902344 L 0 361.902344 Z M 0 27.476562 " clip-rule="nonzero"/></clipPath><clipPath id="1b92afb805"><path d="M 17.25 27.476562 L 357.75 27.476562 C 367.277344 27.476562 375 35.199219 375 44.726562 L 375 344.53125 C 375 354.058594 367.277344 361.78125 357.75 361.78125 L 17.25 361.78125 C 7.722656 361.78125 0 354.058594 0 344.53125 L 0 44.726562 C 0 35.199219 7.722656 27.476562 17.25 27.476562 " clip-rule="nonzero"/></clipPath></defs><g clip-path="url(#bfb514f21c)"><g clip-path="url(#1b92afb805)"><path fill="#ffffff" d="M 0 27.476562 L 375.058594 27.476562 L 375.058594 361.902344 L 0 361.902344 Z M 0 27.476562 " fill-opacity="1" fill-rule="nonzero"/></g></g><path fill="#354065" d="M 270.417969 163.367188 C 270.417969 165.328125 270.367188 167.285156 270.273438 169.238281 C 270.175781 171.195312 270.03125 173.148438 269.839844 175.097656 C 269.648438 177.042969 269.410156 178.988281 269.121094 180.925781 C 268.835938 182.863281 268.5 184.789062 268.117188 186.710938 C 267.734375 188.632812 267.304688 190.542969 266.832031 192.441406 C 266.355469 194.339844 265.832031 196.226562 265.265625 198.101562 C 264.695312 199.976562 264.082031 201.835938 263.421875 203.679688 C 262.761719 205.523438 262.058594 207.347656 261.308594 209.15625 C 260.558594 210.964844 259.765625 212.757812 258.929688 214.527344 C 258.089844 216.296875 257.210938 218.046875 256.289062 219.773438 C 255.363281 221.5 254.398438 223.203125 253.394531 224.882812 C 252.386719 226.5625 251.339844 228.214844 250.25 229.84375 C 249.164062 231.472656 248.035156 233.070312 246.871094 234.644531 C 245.703125 236.21875 244.5 237.761719 243.257812 239.273438 C 242.015625 240.789062 240.734375 242.269531 239.421875 243.722656 C 238.105469 245.171875 236.753906 246.589844 235.371094 247.976562 C 233.988281 249.359375 232.570312 250.710938 231.117188 252.023438 C 229.667969 253.339844 228.183594 254.617188 226.671875 255.859375 C 225.15625 257.101562 223.613281 258.308594 222.039062 259.472656 C 220.46875 260.640625 218.867188 261.769531 217.238281 262.855469 C 215.609375 263.945312 213.957031 264.992188 212.277344 265.996094 C 210.597656 267.003906 208.894531 267.96875 207.167969 268.890625 C 205.441406 269.816406 203.691406 270.695312 201.921875 271.53125 C 200.152344 272.371094 198.363281 273.164062 196.554688 273.914062 C 194.742188 274.664062 192.917969 275.367188 191.074219 276.027344 C 189.230469 276.6875 187.371094 277.300781 185.496094 277.867188 C 183.625 278.4375 181.738281 278.960938 179.835938 279.433594 C 177.9375 279.910156 176.027344 280.339844 174.105469 280.722656 C 172.1875 281.105469 170.257812 281.4375 168.320312 281.726562 C 166.382812 282.011719 164.441406 282.253906 162.492188 282.445312 C 160.542969 282.636719 158.589844 282.78125 156.636719 282.875 C 154.679688 282.972656 152.722656 283.019531 150.765625 283.019531 C 148.804688 283.019531 146.847656 282.972656 144.894531 282.875 C 142.9375 282.78125 140.984375 282.636719 139.035156 282.445312 C 137.085938 282.253906 135.144531 282.011719 133.207031 281.726562 C 131.269531 281.4375 129.339844 281.105469 127.421875 280.722656 C 125.5 280.339844 123.589844 279.910156 121.691406 279.433594 C 119.792969 278.960938 117.90625 278.4375 116.03125 277.867188 C 114.15625 277.300781 112.296875 276.6875 110.453125 276.027344 C 108.609375 275.367188 106.785156 274.664062 104.976562 273.914062 C 103.164062 273.164062 101.375 272.371094 99.605469 271.53125 C 97.835938 270.695312 96.085938 269.816406 94.359375 268.890625 C 92.632812 267.96875 90.929688 267.003906 89.25 265.996094 C 87.570312 264.992188 85.917969 263.945312 84.289062 262.855469 C 82.660156 261.769531 81.058594 260.640625 79.488281 259.472656 C 77.914062 258.308594 76.371094 257.101562 74.855469 255.859375 C 73.34375 254.617188 71.859375 253.339844 70.410156 252.023438 C 68.960938 250.710938 67.542969 249.359375 66.15625 247.976562 C 64.773438 246.589844 63.421875 245.171875 62.105469 243.722656 C 60.792969 242.269531 59.511719 240.789062 58.269531 239.273438 C 57.027344 237.761719 55.824219 236.21875 54.65625 234.644531 C 53.492188 233.070312 52.363281 231.472656 51.277344 229.84375 C 50.1875 228.214844 49.140625 226.5625 48.132812 224.882812 C 47.128906 223.203125 46.164062 221.5 45.238281 219.773438 C 44.316406 218.046875 43.4375 216.296875 42.597656 214.527344 C 41.761719 212.757812 40.96875 210.964844 40.21875 209.15625 C 39.46875 207.347656 38.765625 205.523438 38.105469 203.679688 C 37.445312 201.835938 36.832031 199.976562 36.261719 198.101562 C 35.695312 196.226562 35.171875 194.339844 34.695312 192.441406 C 34.222656 190.542969 33.792969 188.632812 33.410156 186.710938 C 33.027344 184.789062 32.695312 182.863281 32.40625 180.925781 C 32.117188 178.988281 31.878906 177.042969 31.6875 175.097656 C 31.496094 173.148438 31.351562 171.195312 31.253906 169.238281 C 31.160156 167.285156 31.109375 165.328125 31.109375 163.367188 C 31.109375 161.410156 31.160156 159.453125 31.253906 157.496094 C 31.351562 155.542969 31.496094 153.589844 31.6875 151.640625 C 31.878906 149.691406 32.117188 147.75 32.40625 145.8125 C 32.695312 143.875 33.027344 141.945312 33.410156 140.023438 C 33.792969 138.105469 34.222656 136.195312 34.695312 134.292969 C 35.171875 132.394531 35.695312 130.507812 36.261719 128.632812 C 36.832031 126.761719 37.445312 124.902344 38.105469 123.058594 C 38.765625 121.214844 39.46875 119.386719 40.21875 117.578125 C 40.96875 115.769531 41.761719 113.980469 42.597656 112.210938 C 43.4375 110.441406 44.316406 108.691406 45.238281 106.964844 C 46.164062 105.238281 47.128906 103.535156 48.132812 101.855469 C 49.140625 100.175781 50.1875 98.519531 51.277344 96.890625 C 52.363281 95.265625 53.492188 93.664062 54.65625 92.089844 C 55.824219 90.519531 57.027344 88.976562 58.269531 87.460938 C 59.511719 85.949219 60.792969 84.464844 62.105469 83.015625 C 63.421875 81.5625 64.773438 80.144531 66.15625 78.761719 C 67.542969 77.375 68.960938 76.027344 70.410156 74.710938 C 71.859375 73.394531 73.34375 72.117188 74.855469 70.875 C 76.371094 69.632812 77.914062 68.429688 79.488281 67.261719 C 81.058594 66.09375 82.660156 64.96875 84.289062 63.878906 C 85.917969 62.792969 87.570312 61.746094 89.25 60.738281 C 90.929688 59.730469 92.632812 58.765625 94.359375 57.84375 C 96.085938 56.921875 97.835938 56.039062 99.605469 55.203125 C 101.375 54.367188 103.164062 53.574219 104.976562 52.824219 C 106.785156 52.074219 108.609375 51.371094 110.453125 50.710938 C 112.296875 50.050781 114.15625 49.4375 116.03125 48.867188 C 117.90625 48.300781 119.792969 47.777344 121.691406 47.300781 C 123.589844 46.824219 125.5 46.394531 127.421875 46.015625 C 129.339844 45.632812 131.269531 45.296875 133.207031 45.011719 C 135.144531 44.722656 137.085938 44.484375 139.035156 44.292969 C 140.984375 44.097656 142.9375 43.957031 144.894531 43.859375 C 146.847656 43.761719 148.804688 43.714844 150.765625 43.714844 C 152.722656 43.714844 154.679688 43.761719 156.636719 43.859375 C 158.589844 43.957031 160.542969 44.097656 162.492188 44.292969 C 164.441406 44.484375 166.382812 44.722656 168.320312 45.011719 C 170.257812 45.296875 172.1875 45.632812 174.105469 46.015625 C 176.027344 46.394531 177.9375 46.824219 179.835938 47.300781 C 181.738281 47.777344 183.625 48.300781 185.496094 48.867188 C 187.371094 49.4375 189.230469 50.050781 191.074219 50.710938 C 192.917969 51.371094 194.742188 52.074219 196.554688 52.824219 C 198.363281 53.574219 200.152344 54.367188 201.921875 55.203125 C 203.691406 56.039062 205.441406 56.921875 207.167969 57.84375 C 208.894531 58.765625 210.597656 59.730469 212.277344 60.738281 C 213.957031 61.746094 215.609375 62.792969 217.238281 63.878906 C 218.867188 64.96875 220.46875 66.09375 222.039062 67.261719 C 223.613281 68.429688 225.15625 69.632812 226.671875 70.875 C 228.183594 72.117188 229.667969 73.394531 231.117188 74.710938 C 232.570312 76.027344 233.988281 77.375 235.371094 78.761719 C 236.753906 80.144531 238.105469 81.5625 239.421875 83.015625 C 240.734375 84.464844 242.015625 85.949219 243.257812 87.460938 C 244.5 88.976562 245.703125 90.519531 246.871094 92.089844 C 248.035156 93.664062 249.164062 95.265625 250.25 96.890625 C 251.339844 98.519531 252.386719 100.175781 253.394531 101.855469 C 254.398438 103.535156 255.363281 105.238281 256.289062 106.964844 C 257.210938 108.691406 258.089844 110.441406 258.929688 112.210938 C 259.765625 113.980469 260.558594 115.769531 261.308594 117.578125 C 262.058594 119.386719 262.761719 121.214844 263.421875 123.058594 C 264.082031 124.902344 264.695312 126.761719 265.265625 128.632812 C 265.832031 130.507812 266.355469 132.394531 266.832031 134.292969 C 267.304688 136.195312 267.734375 138.105469 268.117188 140.023438 C 268.5 141.945312 268.835938 143.875 269.121094 145.8125 C 269.410156 147.75 269.648438 149.691406 269.839844 151.640625 C 270.03125 153.589844 270.175781 155.542969 270.273438 157.496094 C 270.367188 159.453125 270.417969 161.410156 270.417969 163.367188 Z M 270.417969 163.367188 " fill-opacity="1" fill-rule="nonzero"/><path fill="#041636" d="M 80.554688 218.921875 L 30.171875 151.703125 L 17.152344 154.515625 C 17.152344 154.515625 7.707031 168.125 18.855469 184.167969 C 30 200.207031 31.078125 213.785156 28.265625 228.855469 C 36.214844 217.917969 36.320312 205.730469 36.320312 205.730469 C 36.320312 205.730469 53.785156 222.8125 51.285156 255.796875 C 59.722656 243.785156 60.660156 230.105469 60.484375 222.953125 C 61.527344 229.757812 65.3125 242.328125 79.097656 251.632812 C 76.007812 237.5 80.554688 218.921875 80.554688 218.921875 Z M 80.554688 218.921875 " fill-opacity="1" fill-rule="nonzero"/><path fill="#041636" d="M 135.660156 83.4375 C 135.660156 83.4375 148.507812 87.8125 155.589844 108.332031 C 162.671875 128.820312 173.265625 125.484375 173.265625 125.484375 C 173.265625 125.484375 169.0625 138.367188 148.890625 129.859375 C 132.117188 113.125 130.832031 112.046875 130.832031 112.046875 Z M 135.660156 83.4375 " fill-opacity="1" fill-rule="nonzero"/><path fill="#041636" d="M 282.847656 81.734375 C 282.847656 81.734375 290.105469 58.785156 315.832031 60.277344 C 315.832031 60.277344 310.730469 62.605469 305.417969 66.421875 C 320.277344 62.1875 334.722656 62.394531 356.214844 77.257812 C 328.820312 75.554688 324.964844 92.570312 313.921875 97.429688 C 302.882812 102.328125 286.734375 90.417969 286.734375 90.417969 Z M 282.847656 81.734375 " fill-opacity="1" fill-rule="nonzero"/><path fill="#041636" d="M 275.035156 192.117188 C 273.089844 192.117188 271.078125 192.082031 269.027344 191.980469 L 267.847656 191.910156 L 266.804688 191.355469 C 250.625 182.5 245.347656 177.152344 243.679688 174.410156 L 223.75 149.929688 L 239.929688 155 C 240.140625 155.070312 261.320312 161.632812 280.171875 161.632812 C 284.339844 161.632812 288.125 161.320312 291.355469 160.660156 C 297.222656 159.515625 304.582031 156.980469 306.285156 151.457031 C 307.570312 147.292969 306.804688 137.292969 287.222656 117.328125 C 281.25 111.25 277.328125 105.902344 275.207031 100.972656 C 273.054688 95.972656 272.777344 91.421875 274.410156 87.464844 C 279.027344 76.214844 296.355469 75.625 298.296875 75.589844 L 299.167969 85.730469 L 299.203125 85.730469 L 299.132812 85.730469 C 296.078125 86.25 290.902344 88.125 290.207031 91.007812 C 289.339844 94.480469 293.855469 102.292969 309.027344 113.855469 C 318.332031 120.9375 325.242188 129.203125 328.992188 137.8125 C 332.742188 146.421875 333.332031 155.207031 330.695312 163.195312 C 327.847656 171.769531 321.457031 178.992188 312.222656 184.027344 C 302.671875 189.234375 290.589844 191.980469 276.285156 192.117188 C 275.867188 192.117188 275.453125 192.117188 275.035156 192.117188 Z M 275.035156 192.117188 " fill-opacity="1" fill-rule="nonzero"/><path fill="#041636" d="M 291.214844 312.707031 C 287.777344 312.707031 285.417969 312.222656 283.507812 311.078125 C 281.910156 310.140625 279.234375 307.882812 279.234375 303.160156 C 279.234375 296.285156 283.507812 286.007812 291.527344 284.582031 C 292.535156 284.410156 293.507812 284.269531 294.480469 284.132812 C 295.660156 283.957031 297.5 283.714844 298.472656 283.402344 C 298.992188 279.515625 299.546875 271.109375 299.546875 264.339844 C 299.546875 263.296875 299.203125 262.359375 298.507812 261.527344 C 297.359375 260.171875 293.472656 257.015625 281.945312 257.015625 C 279.894531 257.015625 277.671875 257.117188 275.347656 257.328125 C 271.980469 257.640625 269.132812 257.777344 266.632812 257.777344 C 254.304688 257.777344 249.6875 254.097656 242.671875 248.472656 C 241.945312 247.882812 241.144531 247.257812 240.3125 246.597656 C 239.617188 248.542969 239.304688 250.796875 239.480469 252.984375 C 239.652344 255.695312 240.554688 257.953125 241.875 259.0625 C 244.929688 261.597656 247.8125 264.445312 248.054688 268.402344 C 248.296875 272.082031 246.179688 274.964844 244.339844 277.535156 C 242.394531 280.242188 239.097656 282.742188 235.242188 285.660156 C 230.972656 288.921875 226.109375 292.605469 224.132812 296.007812 C 220.695312 301.980469 216.910156 307.328125 208.644531 307.328125 C 207.464844 307.328125 206.214844 307.222656 204.792969 307.015625 C 203.089844 306.769531 200.519531 306.734375 198.472656 306.734375 C 197.464844 306.734375 196.390625 306.734375 195.382812 306.769531 C 194.304688 306.769531 193.230469 306.804688 192.152344 306.804688 C 184.410156 306.804688 178.332031 306.457031 176.007812 301.910156 C 175.3125 300.554688 174.929688 299.269531 174.828125 297.984375 C 174.546875 294.269531 176.5625 291.632812 178.921875 288.578125 C 179.480469 287.847656 180.140625 287.015625 180.832031 286.078125 C 182.464844 283.890625 185.453125 281.25 190.625 281.25 C 192.8125 281.25 194.859375 281.703125 196.527344 282.082031 C 197.152344 282.222656 197.953125 282.394531 198.4375 282.464844 C 200.3125 281.492188 206.421875 276.25 210.207031 268.296875 C 212.222656 264.097656 212.605469 257.292969 197.707031 241.875 C 189.269531 233.160156 187.152344 225.832031 186.910156 221.109375 C 185.625 220.867188 183.992188 220.695312 182.082031 220.695312 C 177.429688 220.695312 172.671875 221.769531 167.917969 223.890625 C 157.605469 228.472656 148.472656 230.453125 143.125 231.285156 C 143.230469 234.582031 143.367188 238.855469 143.4375 241.390625 C 143.472656 242.953125 143.507812 243.367188 143.507812 243.542969 C 143.542969 243.890625 143.785156 247.917969 146.007812 254.6875 C 147.1875 258.265625 148.679688 261.980469 150.484375 265.695312 C 152.117188 269.027344 152.359375 272.777344 151.179688 276.285156 C 148.472656 284.269531 148.4375 293.855469 148.4375 293.957031 L 148.4375 295.832031 L 147.257812 297.257812 C 146.527344 298.125 142.605469 302.570312 138.019531 303.75 C 135.417969 304.410156 130.730469 304.792969 127.742188 304.929688 C 125.902344 306.910156 122.570312 309.410156 116.632812 311.390625 L 116.179688 311.5625 L 115.695312 311.632812 C 113.019531 311.980469 109.6875 312.1875 106.285156 312.1875 C 101.597656 312.1875 96.980469 311.804688 93.367188 311.144531 C 87.984375 310.140625 84.582031 308.507812 82.640625 306.042969 L 81.492188 304.582031 L 81.5625 302.707031 C 81.980469 292.984375 87.429688 288.402344 91.910156 286.25 C 96.078125 284.269531 100.625 283.855469 103.714844 283.855469 C 103.992188 283.855469 104.234375 283.855469 104.515625 283.855469 L 107.015625 279.410156 C 107.257812 277.8125 107.8125 273.507812 107.359375 267.671875 C 106.597656 257.882812 103.542969 248.714844 98.230469 240.417969 C 84.027344 218.125 71.355469 183.507812 70.832031 182.046875 L 70.140625 180.105469 L 71.007812 178.195312 C 71.355469 177.429688 79.617188 159.617188 95.9375 141.980469 C 100.3125 137.257812 104.894531 132.953125 109.582031 129.167969 C 117.152344 123.054688 125.171875 118.160156 133.402344 114.617188 L 137.015625 113.089844 L 139.445312 116.179688 C 148.890625 128.230469 165.589844 132.777344 181.734375 137.1875 C 193.542969 140.417969 204.757812 143.472656 213.472656 149.339844 C 222.847656 149.480469 230.765625 150.519531 237.671875 152.464844 C 245.105469 154.582031 251.390625 157.742188 256.910156 162.222656 C 262.082031 166.390625 266.632812 171.703125 270.832031 178.507812 C 274.445312 184.375 277.882812 191.457031 281.667969 200.796875 C 291.804688 225.9375 309.859375 230.660156 319.546875 233.195312 C 321.839844 233.785156 323.644531 234.269531 325.035156 234.929688 C 331.25 237.917969 331.285156 245.660156 331.285156 248.195312 C 331.320312 252.8125 330.484375 258.160156 329.6875 263.332031 C 329.480469 264.617188 329.304688 265.867188 329.132812 267.046875 C 328.609375 270.730469 328.507812 275.242188 328.820312 280.453125 C 329.203125 286.214844 330 290.9375 330.140625 291.804688 C 330.730469 295.207031 328.472656 297.777344 325.625 301.042969 C 324.203125 302.671875 322.605469 304.480469 321.632812 306.144531 C 318.230469 311.734375 313.089844 311.839844 307.640625 311.910156 C 305.589844 311.945312 303.265625 311.980469 300.519531 312.222656 C 296.980469 312.429688 293.855469 312.707031 291.214844 312.707031 Z M 291.214844 312.707031 " fill-opacity="1" fill-rule="nonzero"/><path fill="#8fa6c4" d="M 324.964844 292.570312 C 325.277344 294.339844 319.828125 298.890625 317.082031 303.402344 C 314.339844 307.917969 309.929688 306.144531 299.859375 307.082031 C 291.980469 307.8125 286.910156 308.230469 285.105469 305.902344 C 284.582031 305.242188 284.339844 304.375 284.339844 303.230469 C 284.339844 297.984375 287.707031 290.519531 292.429688 289.6875 C 297.152344 288.855469 302.742188 288.957031 303.367188 285.171875 C 303.921875 281.769531 304.515625 273.644531 304.617188 266.703125 L 304.617188 266.667969 C 304.617188 265.902344 304.617188 265.171875 304.617188 264.445312 C 304.617188 262.292969 303.921875 260.207031 302.394531 258.367188 C 298.679688 253.957031 290.140625 251.042969 274.894531 252.359375 C 253.367188 254.234375 253.507812 249.410156 238.992188 238.921875 C 238.402344 239.582031 237.847656 240.3125 237.359375 241.109375 C 237.359375 241.109375 237.359375 241.109375 237.328125 241.144531 C 233.089844 247.953125 233.367188 258.75 238.644531 263.089844 C 244.515625 267.917969 243.785156 269.722656 240.207031 274.652344 C 236.632812 279.582031 224.027344 286.109375 219.722656 293.578125 C 215.417969 301.042969 212.777344 303.125 205.554688 302.082031 C 198.296875 301.042969 182.328125 303.125 180.554688 299.652344 C 180.171875 298.921875 179.964844 298.265625 179.929688 297.671875 C 179.757812 295.382812 181.734375 293.542969 184.964844 289.167969 C 189.0625 283.609375 196.320312 288.332031 199.480469 287.605469 C 202.640625 286.875 210.417969 279.828125 214.828125 270.589844 C 219.234375 261.355469 213.578125 251.042969 201.390625 238.4375 C 189.203125 225.832031 192.359375 217.429688 192.359375 217.429688 C 192.359375 217.429688 181.214844 212.5 165.902344 219.304688 C 150.453125 226.042969 137.847656 226.769531 137.847656 226.769531 C 137.847656 226.769531 138.160156 236.980469 138.296875 241.527344 C 138.332031 242.742188 138.367188 243.578125 138.367188 243.644531 C 138.367188 243.890625 138.578125 248.507812 141.109375 256.25 C 142.1875 259.582031 143.714844 263.507812 145.867188 267.882812 C 146.875 270 147.046875 272.394531 146.320312 274.617188 C 143.332031 283.507812 143.332031 293.921875 143.332031 293.921875 C 143.332031 293.921875 139.964844 297.917969 136.703125 298.75 C 134.097656 299.410156 128.160156 299.757812 125.9375 299.859375 C 125.382812 299.894531 125.070312 299.894531 125.070312 299.894531 C 125.070312 299.894531 123.714844 303.578125 115 306.527344 C 106.390625 307.671875 89.894531 307.046875 86.632812 302.847656 C 86.910156 296.144531 90.207031 292.605469 94.097656 290.765625 C 100.035156 287.917969 107.328125 289.097656 107.328125 289.097656 L 111.839844 281.109375 C 111.839844 281.109375 116.5625 259.6875 102.5 237.605469 C 88.4375 215.554688 75.589844 180.242188 75.589844 180.242188 C 75.589844 180.242188 83.644531 162.605469 99.617188 145.347656 C 103.507812 141.144531 107.882812 136.945312 112.707031 133.019531 C 119.375 127.640625 126.910156 122.8125 135.347656 119.203125 C 153.265625 142.015625 192.117188 139.929688 211.734375 154.269531 C 250.035156 154.445312 263.402344 169.339844 276.804688 202.535156 C 290.207031 235.730469 317.046875 236.632812 322.707031 239.339844 C 328.367188 242.082031 325.554688 255.3125 323.957031 266.109375 C 323.265625 270.796875 323.332031 276.007812 323.609375 280.589844 C 323.957031 286.667969 324.792969 291.527344 324.964844 292.570312 Z M 324.964844 292.570312 " fill-opacity="1" fill-rule="nonzero"/><path fill="#dcc023" d="M 299.203125 298.125 C 289.757812 298.921875 286.320312 302.882812 285.070312 305.832031 C 284.546875 305.171875 284.304688 304.304688 284.304688 303.160156 C 284.304688 297.917969 287.671875 290.453125 292.394531 289.617188 C 297.117188 288.785156 302.707031 288.890625 303.332031 285.105469 C 303.890625 281.703125 304.480469 273.578125 304.582031 266.632812 C 304.6875 268.019531 306.804688 297.222656 299.203125 298.125 Z M 299.203125 298.125 " fill-opacity="1" fill-rule="nonzero"/><path fill="#041636" d="M 141.144531 256.25 C 138.507812 261.492188 135.9375 267.1875 135.417969 270.554688 C 134.304688 277.984375 129.757812 283.4375 128.855469 288.820312 C 127.359375 297.605469 124.339844 303.507812 124.339844 303.507812 C 124.339844 303.507812 125.902344 289.894531 129.203125 283.609375 C 132.5 277.328125 133.054688 267.8125 133.054688 267.8125 C 133.054688 267.8125 136.734375 252.671875 138.296875 241.527344 C 138.332031 242.742188 139.132812 243.332031 139.203125 243.296875 C 139.652344 243.160156 139.828125 247.429688 141.144531 256.25 Z M 141.144531 256.25 " fill-opacity="1" fill-rule="nonzero"/><path fill="#dcc023" d="M 109.582031 291.980469 C 100.277344 296.667969 95.902344 293.367188 94.0625 290.765625 C 100 287.917969 107.292969 289.097656 107.292969 289.097656 L 111.804688 281.109375 C 111.804688 281.109375 116.527344 259.6875 102.464844 237.605469 C 88.402344 215.554688 75.554688 180.242188 75.554688 180.242188 C 75.554688 180.242188 83.644531 162.605469 99.582031 145.347656 C 95.453125 158.230469 93.125 178.195312 104.339844 201.492188 C 102.046875 189.828125 103.820312 178.4375 103.820312 178.4375 C 103.820312 178.4375 108.367188 210.105469 120.554688 226.839844 C 113.367188 222.117188 109.828125 217.429688 109.652344 217.222656 C 109.964844 217.777344 122.777344 239.757812 116.214844 273.644531 C 118.992188 268.992188 120.554688 261.320312 120.554688 261.320312 C 120.554688 261.320312 123.265625 285.070312 109.582031 291.980469 Z M 109.582031 291.980469 " fill-opacity="1" fill-rule="nonzero"/><path fill="#dcc023" d="M 323.921875 266.179688 C 323.230469 270.867188 323.296875 276.078125 323.578125 280.660156 C 320.660156 268.296875 326.980469 248.644531 321.875 245.695312 C 315.867188 242.222656 286.355469 242.328125 274.652344 213.4375 C 262.953125 184.546875 240.625 174.0625 240.625 174.0625 C 240.625 174.0625 244.859375 178.957031 249.375 191.042969 C 211.457031 147.847656 139.167969 173.472656 138.542969 173.679688 C 138.855469 173.472656 158.957031 160.484375 169.410156 159.792969 C 135.105469 153.195312 119.515625 141.144531 112.671875 133.054688 C 119.339844 127.671875 126.875 122.847656 135.3125 119.234375 C 153.230469 142.046875 192.082031 139.964844 211.703125 154.304688 C 250 154.480469 263.367188 169.375 276.769531 202.570312 C 290.171875 235.765625 317.015625 236.667969 322.671875 239.375 C 328.332031 242.117188 325.484375 255.347656 323.921875 266.179688 Z M 323.921875 266.179688 " fill-opacity="1" fill-rule="nonzero"/><path fill="#dcc023" d="M 239.617188 205.347656 C 239.617188 205.347656 236.492188 231.769531 265.972656 245.589844 C 265.972656 245.589844 256.390625 236.421875 252.742188 229.757812 C 256.769531 233.265625 261.179688 235.277344 261.179688 235.277344 C 261.179688 235.277344 244.828125 222.015625 239.617188 205.347656 Z M 239.617188 205.347656 " fill-opacity="1" fill-rule="nonzero"/><path fill="#041636" d="M 140.242188 111.25 C 143.992188 112.570312 153.957031 116.25 160.347656 119.792969 C 154.375 87.8125 135.660156 78.578125 135.660156 78.578125 C 135.660156 78.578125 140.695312 78.230469 148.890625 78.957031 C 132.082031 63.125 114.582031 66.910156 114.582031 66.910156 C 114.582031 66.910156 118.296875 64.027344 125.242188 60.796875 C 101.597656 57.671875 95.140625 61.839844 95.140625 61.839844 C 95.140625 61.839844 97.605469 58.332031 102.570312 54.828125 C 75.207031 55.730469 63.890625 69.339844 63.890625 69.339844 C 63.890625 69.339844 67.777344 59.0625 72.152344 54.027344 C 54.269531 55.832031 46.527344 64.929688 46.527344 64.929688 C 46.527344 64.929688 46.355469 62.082031 47.984375 58.992188 C 38.160156 64.304688 40.382812 75.832031 40.382812 75.832031 C 37.953125 75.070312 34.929688 74.445312 31.390625 74.445312 C 28.4375 74.445312 25.453125 74.859375 22.464844 75.695312 L 18.679688 76.769531 L 18.820312 80.832031 C 18.921875 83.542969 19.269531 86.007812 19.792969 88.265625 C 18.609375 89.617188 17.222656 91.355469 15.796875 93.402344 L 15.765625 93.265625 L 15.519531 93.75 C 10.902344 100.382812 5.9375 110.105469 6.179688 121.078125 C 6.179688 122.742188 6.25 124.515625 6.492188 126.390625 C 8.160156 143.265625 15.554688 151.945312 15.554688 151.945312 L 17.152344 154.480469 L 16.320312 159.0625 C 16.007812 160.207031 15.730469 161.667969 15.484375 163.367188 C 15.382812 164.304688 15.277344 165.3125 15.242188 166.355469 C 15.035156 171.527344 16.042969 176.390625 18.160156 180.730469 C 18.160156 180.730469 18.332031 181.285156 19.203125 182.671875 C 19.964844 183.992188 20.867188 185.277344 21.875 186.492188 C 22.535156 187.328125 23.265625 188.296875 24.132812 189.339844 C 24.304688 189.582031 24.480469 189.792969 24.617188 190.035156 C 29.269531 197.1875 33.054688 217.640625 33.054688 217.640625 C 33.054688 217.640625 34.027344 212.953125 36.320312 205.695312 C 46.214844 211.5625 57.082031 238.644531 57.082031 238.644531 C 57.082031 238.644531 61.042969 226.527344 60.105469 218.054688 C 64.964844 229.445312 75.972656 235.207031 75.972656 235.207031 L 77.5 223.644531 L 84.339844 235.207031 C 84.339844 235.207031 86.667969 221.144531 105.484375 209.6875 C 112.953125 205.140625 126.320312 202.292969 130.035156 195.730469 C 130.070312 195.730469 130.070312 195.730469 130.070312 195.765625 L 144.792969 203.054688 L 136.5625 188.542969 C 136.5625 188.542969 136.214844 187.917969 135.796875 186.804688 C 151.109375 165.140625 147.535156 139.792969 147.535156 139.792969 C 147.535156 139.792969 152.222656 143.089844 158.578125 154.375 C 158.125 139.828125 152.8125 128.644531 147.777344 121.214844 C 145.695312 117.605469 143.160156 114.269531 140.242188 111.25 Z M 140.242188 111.25 " fill-opacity="1" fill-rule="nonzero"/><path fill="#dcc023" d="M 47.082031 119.929688 C 47.082031 119.929688 44.546875 123.644531 41.109375 124.859375 C 37.671875 126.078125 35.554688 129.234375 35.554688 129.234375 C 35.554688 129.234375 37.917969 122.640625 39.652344 121.457031 C 38.644531 121.492188 37.917969 117.082031 37.917969 117.082031 L 37.605469 119.339844 C 36.632812 117.359375 36.492188 115.9375 36.492188 115.9375 C 36.492188 115.9375 37.535156 114.617188 40.695312 114.375 C 40.695312 114.375 41.667969 117.015625 44.269531 119.167969 C 46.25 119.582031 48.019531 118.957031 48.019531 118.957031 Z M 47.082031 119.929688 " fill-opacity="1" fill-rule="nonzero"/><path fill="#8fa6c4" d="M 78.195312 133.4375 C 77.917969 129.515625 80.347656 125.140625 84.027344 122.671875 C 86.390625 121.109375 88.820312 115.902344 87.292969 110.867188 C 86.421875 108.019531 84.269531 105.277344 80.105469 103.265625 C 83.367188 101.703125 86.875 103.265625 86.875 103.265625 C 86.875 103.265625 79.546875 96.667969 73.230469 95.796875 C 76.078125 94.894531 79.132812 94.894531 79.132812 94.894531 C 79.132812 94.894531 71.839844 90.242188 65.382812 95.660156 C 66.632812 92.082031 67.082031 90.796875 67.082031 90.796875 C 67.082031 90.796875 60.730469 92.984375 57.671875 97.082031 L 54.964844 89.0625 C 46.285156 94.167969 37.847656 112.082031 37.847656 112.082031 C 37.847656 112.082031 42.152344 111.421875 46.769531 111.945312 C 44.757812 112.292969 44.582031 112.328125 44.582031 112.328125 C 44.582031 112.328125 48.332031 113.679688 50.347656 116.945312 C 50.347656 116.945312 46.875 123.609375 41.839844 126.5625 C 39.203125 128.125 37.359375 130.070312 36.214844 131.597656 C 35.171875 132.984375 34.722656 133.992188 34.722656 133.992188 C 34.722656 133.992188 36.769531 134.132812 38.367188 135.589844 C 39.964844 137.046875 49.757812 131.769531 51.320312 139.792969 C 54.304688 137.359375 55.902344 136.910156 56.5625 138.160156 C 56.769531 138.542969 56.875 139.097656 56.910156 139.792969 C 56.910156 140.140625 56.839844 140.453125 56.632812 140.730469 C 56.355469 141.144531 55.902344 141.492188 55.382812 141.769531 C 52.984375 143.054688 48.644531 143.367188 48.644531 143.367188 C 48.644531 143.367188 44.132812 147.917969 44.167969 150.207031 C 44.203125 152.5 48.992188 159.445312 58.785156 161.769531 C 60.207031 162.117188 61.457031 162.328125 62.605469 162.5 C 69.445312 163.472656 71.910156 161.769531 71.910156 161.769531 C 71.910156 161.769531 75.070312 153.332031 70.070312 146.667969 C 69.582031 146.042969 69.027344 145.417969 68.402344 144.828125 C 63.785156 143.890625 62.671875 143.890625 62.671875 143.890625 C 62.671875 143.890625 65.695312 143.4375 68.230469 143.820312 C 68.019531 143.019531 67.953125 142.257812 67.917969 141.492188 C 67.742188 137.429688 69.6875 134.410156 69.757812 134.304688 C 69.757812 134.304688 69.617188 138.75 70 139.722656 C 70.382812 140.695312 76.25 144.167969 76.25 144.167969 C 76.25 144.167969 78.507812 139.269531 81.109375 136.285156 C 83.75 133.296875 87.5 127.1875 87.5 127.1875 C 87.5 127.1875 80.242188 130.695312 78.195312 133.4375 Z M 72.015625 120.242188 C 68.332031 121.769531 67.394531 125.382812 67.394531 125.382812 C 67.394531 125.382812 61.25 127.328125 56.945312 134.582031 C 56.945312 134.582031 58.054688 124.964844 66.5625 118.019531 C 63.367188 116.527344 63.367188 116.527344 63.367188 116.527344 C 63.367188 116.527344 70.140625 113.332031 73.125 112.535156 C 76.109375 111.734375 86.179688 115.105469 86.179688 115.105469 C 86.179688 115.105469 85.207031 119.234375 76.355469 122.082031 C 81.042969 119.097656 82.082031 117.535156 82.152344 117.464844 C 82.046875 117.570312 77.222656 121.109375 72.015625 120.242188 Z M 72.015625 120.242188 " fill-opacity="1" fill-rule="nonzero"/><path fill="#dcc023" d="M 40.207031 156.527344 C 39.859375 157.328125 39.617188 157.917969 39.304688 158.160156 C 39.027344 158.367188 38.679688 158.332031 38.089844 157.953125 C 37.640625 157.671875 37.015625 157.152344 36.214844 156.390625 C 35.382812 155.242188 34.722656 154.0625 34.234375 152.8125 C 31.875 146.945312 33.054688 140.589844 33.054688 140.589844 C 35.9375 142.671875 39.480469 147.015625 41.421875 150.035156 C 43.332031 152.984375 41.109375 154.546875 40.207031 156.527344 Z M 40.207031 156.527344 " fill-opacity="1" fill-rule="nonzero"/><path fill="#dcc023" d="M 34.269531 136.703125 C 33.820312 136.667969 33.472656 137.082031 33.578125 137.535156 C 33.75 138.265625 34.515625 139.410156 37.152344 140.832031 C 41.632812 143.265625 42.429688 144.480469 43.472656 141.945312 C 44.480469 139.410156 47.359375 138.265625 47.359375 138.265625 C 47.359375 138.265625 45.796875 137.257812 41.597656 138.367188 C 37.707031 139.375 36.390625 136.839844 34.269531 136.703125 Z M 34.269531 136.703125 " fill-opacity="1" fill-rule="nonzero"/><path fill="#dcc023" d="M 121.632812 139.132812 C 107.8125 120.867188 90.105469 118.714844 90.105469 118.714844 C 90.105469 118.714844 96.25 115.765625 103.992188 117.570312 C 97.464844 108.296875 88.265625 103.402344 88.089844 103.332031 C 88.195312 103.332031 93.855469 104.203125 100.867188 109.304688 C 96.042969 102.257812 84.894531 96.667969 84.894531 96.667969 C 84.894531 96.667969 95.070312 97.8125 103.367188 103.4375 C 93.507812 89.097656 77.015625 89.097656 77.015625 89.097656 C 93.4375 83.855469 109.828125 97.394531 112.847656 110.660156 C 110.519531 108.890625 104.828125 108.160156 104.828125 108.160156 C 104.828125 108.160156 114.929688 116.078125 119.6875 126.703125 C 115.105469 122.429688 110.105469 122.328125 110.105469 122.328125 C 110.105469 122.328125 117.8125 127.847656 121.632812 139.132812 Z M 121.632812 139.132812 " fill-opacity="1" fill-rule="nonzero"/><path fill="#dcc023" d="M 110.207031 139.132812 C 110.382812 139.339844 126.007812 158.332031 108.679688 188.019531 C 113.019531 174.339844 108.125 158.265625 108.125 158.265625 C 108.125 158.265625 106.285156 169.582031 101.667969 176.804688 C 106.875 154.410156 95.902344 138.855469 95.765625 138.679688 C 95.867188 138.785156 102.222656 143.367188 104.375 147.535156 C 101.109375 136.875 89.722656 123.542969 89.722656 123.542969 C 89.929688 123.644531 97.015625 127.359375 101.109375 133.75 C 100.554688 129.167969 98.992188 125.972656 98.992188 125.972656 C 98.992188 125.972656 116.703125 135.347656 119.0625 149.445312 C 116.5625 142.847656 110.3125 139.203125 110.207031 139.132812 Z M 110.207031 139.132812 " fill-opacity="1" fill-rule="nonzero"/><path fill="#dcc023" d="M 96.042969 194.6875 C 96.042969 194.6875 85.972656 188.019531 89.722656 170.625 C 84.6875 179.203125 87.082031 190.796875 87.082031 190.796875 C 87.082031 190.796875 76.769531 183.472656 85.519531 166.109375 C 94.269531 148.75 86.179688 137.535156 86.179688 137.535156 C 86.179688 137.535156 101.457031 140.589844 95.277344 163.785156 C 89.132812 186.980469 96.042969 194.6875 96.042969 194.6875 Z M 96.042969 194.6875 " fill-opacity="1" fill-rule="nonzero"/><path fill="#dcc023" d="M 74.097656 181.179688 C 64.617188 194.132812 63.578125 210.867188 68.644531 219.027344 C 68.472656 218.890625 55.035156 208.542969 59.0625 189.828125 C 59.722656 193.542969 61.214844 198.472656 61.214844 198.472656 C 61.214844 198.472656 60.140625 188.855469 69.203125 179.722656 C 79.0625 169.757812 78.992188 160.589844 78.992188 160.589844 C 78.992188 160.589844 83.609375 168.230469 74.097656 181.179688 Z M 74.097656 181.179688 " fill-opacity="1" fill-rule="nonzero"/><path fill="#dcc023" d="M 40.867188 178.820312 C 40.867188 178.820312 35 194.445312 44.828125 203.054688 C 54.652344 211.667969 55.277344 216.980469 55.277344 216.980469 C 55.277344 216.980469 57.671875 205.417969 48.4375 197.882812 C 39.167969 190.382812 40.867188 178.820312 40.867188 178.820312 Z M 40.867188 178.820312 " fill-opacity="1" fill-rule="nonzero"/><path fill="#dcc023" d="M 21.769531 158.265625 C 21.769531 158.265625 16.285156 172.046875 25.796875 183.367188 C 35.3125 194.6875 34.722656 201.5625 34.722656 201.5625 C 34.722656 201.5625 39.0625 189.027344 33.578125 180.453125 C 28.089844 171.875 28.296875 168.019531 28.296875 168.019531 C 28.296875 168.019531 27.292969 175.277344 30.207031 181.320312 C 23.785156 175.140625 21.945312 164.617188 21.769531 158.265625 Z M 21.769531 158.265625 " fill-opacity="1" fill-rule="nonzero"/><path fill="#dcc023" d="M 40.453125 99.203125 C 40.453125 99.203125 25.070312 104.304688 21.875 120.207031 C 24.964844 115.484375 27.8125 114.339844 27.8125 114.339844 C 27.8125 114.339844 17.015625 126.734375 22.429688 144.445312 C 23.332031 135.867188 25.625 132.570312 25.625 132.570312 C 25.625 132.570312 21.527344 146.421875 26.980469 156.078125 C 32.429688 165.730469 32.359375 169.515625 32.359375 169.515625 C 32.359375 169.515625 34.375 163.195312 30.171875 151.703125 C 25.972656 140.207031 34.722656 121.804688 34.722656 121.804688 C 34.722656 121.804688 29.722656 123.644531 27.152344 127.292969 C 28.089844 115.417969 31.910156 109.203125 40.453125 99.203125 Z M 40.453125 99.203125 " fill-opacity="1" fill-rule="nonzero"/><path fill="#dcc023" d="M 39.894531 95.140625 C 39.894531 95.140625 45.105469 86.804688 55.3125 84.757812 C 55.3125 84.757812 52.429688 73.542969 61.25 66.214844 C 54.480469 68.75 50.382812 73.679688 49.304688 82.015625 C 46.179688 79.203125 46.421875 74.375 46.421875 74.375 C 46.421875 74.375 43.019531 79.757812 46.285156 84.859375 C 41.597656 87.015625 39.410156 91.632812 39.894531 95.140625 Z M 39.894531 95.140625 " fill-opacity="1" fill-rule="nonzero"/><path fill="#dcc023" d="M 97.605469 71.734375 C 87.5 75.105469 79.0625 85.730469 79.0625 85.730469 C 79.0625 85.730469 81.632812 78.230469 84.582031 75.660156 C 72.464844 78.855469 67.777344 88.578125 67.777344 88.578125 C 67.777344 88.578125 68.609375 77.953125 72.953125 73.230469 C 61.597656 80.867188 58.855469 87.882812 58.855469 87.882812 C 58.855469 87.882812 56.769531 80.660156 60.382812 72.257812 C 59.828125 75.035156 60.765625 81.179688 60.765625 81.179688 C 60.765625 81.179688 68.957031 65.730469 88.609375 62.742188 C 80.277344 67.394531 77.117188 73.332031 77.046875 73.4375 C 77.257812 73.332031 95.347656 63.507812 113.230469 69.859375 C 101.703125 70.140625 92.777344 77.882812 92.640625 77.984375 C 92.777344 77.777344 95.070312 73.820312 97.605469 71.734375 Z M 97.605469 71.734375 " fill-opacity="1" fill-rule="nonzero"/><path fill="#dcc023" d="M 100.171875 75.382812 C 100.171875 75.382812 121.007812 65.484375 133.644531 79.894531 C 128.992188 77.046875 120.554688 76.667969 120.554688 76.667969 C 120.554688 76.667969 139.097656 82.984375 143.921875 95.070312 C 139.6875 88.890625 129.894531 86.734375 129.894531 86.734375 C 129.894531 86.734375 141.667969 96.144531 145.070312 108.125 C 135.765625 97.082031 123.230469 94.132812 123.230469 94.132812 C 123.230469 94.132812 130.660156 92.984375 133.054688 94.269531 C 127.328125 87.984375 119.027344 83.230469 119.027344 83.230469 C 119.027344 83.230469 127.1875 82.953125 129.964844 84.097656 C 122.847656 79.167969 109.652344 77.882812 109.652344 77.882812 C 109.652344 77.882812 114.6875 75.171875 118.160156 74.6875 C 113.019531 74.097656 103.332031 74.269531 100.171875 75.382812 Z M 100.171875 75.382812 " fill-opacity="1" fill-rule="nonzero"/><path fill="#dcc023" d="M 120.695312 104.234375 C 120.695312 104.234375 143.714844 111.804688 148.890625 138.4375 C 142.257812 126.25 137.328125 124.515625 137.328125 124.515625 C 137.328125 124.515625 145.625 138.4375 142.742188 158.4375 C 142.742188 158.4375 140.484375 131.875 119.722656 120.277344 C 125.519531 120.765625 133.820312 124.515625 133.820312 124.515625 C 133.820312 124.515625 129.234375 111.078125 120.695312 104.234375 Z M 120.695312 104.234375 " fill-opacity="1" fill-rule="nonzero"/><path fill="#dcc023" d="M 132.257812 191.144531 C 132.257812 191.144531 115.417969 182.8125 122.640625 164.894531 C 129.792969 147.152344 124.894531 134.757812 124.792969 134.546875 C 125 134.722656 136.285156 144.304688 130.695312 161.320312 C 125.105469 178.265625 132.117188 190.867188 132.257812 191.144531 Z M 132.257812 191.144531 " fill-opacity="1" fill-rule="nonzero"/><path fill="#dcc023" d="M 95.625 205 C 80.902344 214.027344 80.554688 218.890625 80.554688 218.890625 C 80.484375 218.75 76.042969 210.972656 89.0625 202.359375 C 102.1875 193.679688 104.304688 184.132812 104.304688 184.132812 C 104.375 184.339844 110.207031 196.042969 95.625 205 Z M 95.625 205 " fill-opacity="1" fill-rule="nonzero"/><path fill="#dcc023" d="M 63.679688 175.796875 C 62.394531 174.582031 57.394531 171.5625 57.394531 171.5625 C 57.394531 171.5625 57.570312 175.105469 59.929688 180.453125 C 56.492188 177.640625 52.222656 172.082031 52.222656 172.082031 C 52.222656 172.082031 51.214844 180.554688 53.160156 185.832031 C 47.570312 182.535156 45 172.359375 45 172.359375 C 45 172.359375 44.269531 176.492188 46.492188 180.484375 C 38.75 175.902344 37.1875 168.125 38.332031 160.207031 C 40.070312 159.6875 41.285156 158.75 42.117188 157.882812 C 42.984375 156.945312 44.445312 156.910156 45.347656 157.777344 C 52.640625 165 57.359375 164.203125 61.734375 165.453125 C 61.910156 165.484375 62.082031 165.554688 62.222656 165.589844 C 67.152344 167.257812 66.390625 170.730469 63.679688 175.796875 Z M 63.679688 175.796875 " fill-opacity="1" fill-rule="nonzero"/><path fill="#8fa6c4" d="M 44.234375 83.265625 C 44.234375 83.265625 42.953125 83.785156 41.492188 84.792969 C 40.730469 85.3125 39.964844 85.972656 39.269531 86.734375 C 34.339844 82.882812 28.609375 83.75 28.609375 83.75 C 28.609375 83.75 28.820312 85.972656 31.457031 89.097656 C 30.035156 88.507812 28.921875 88.125 28.921875 88.125 C 28.921875 88.125 31.078125 92.917969 36.632812 95.796875 C 35.347656 96.839844 34.929688 97.222656 33.578125 98.367188 C 32.394531 99.375 31.492188 100.140625 31.492188 100.140625 C 31.492188 100.140625 24.167969 93.402344 23.75 80.695312 C 36.214844 77.1875 44.234375 83.265625 44.234375 83.265625 Z M 44.234375 83.265625 " fill-opacity="1" fill-rule="nonzero"/><path fill="#8fa6c4" d="M 116.320312 105.832031 C 116.320312 105.832031 115.140625 104.269531 113.820312 102.605469 C 112.671875 101.109375 111.421875 99.546875 110.832031 98.957031 C 115.035156 90.972656 113.195312 84.894531 113.195312 84.894531 C 113.195312 84.894531 104.929688 85.140625 99.304688 89.546875 C 97.605469 88.921875 95.972656 88.367188 94.546875 87.917969 C 92.257812 87.152344 90.625 86.632812 90.625 86.632812 L 92.605469 85.519531 C 92.605469 85.519531 103.679688 79.894531 116.285156 80.695312 C 122.082031 90.695312 116.320312 105.832031 116.320312 105.832031 Z M 116.320312 105.832031 " fill-opacity="1" fill-rule="nonzero"/><path fill="#dcc023" d="M 25.554688 81.804688 C 26.980469 90.207031 31.390625 95.902344 33.644531 98.332031 C 32.464844 99.339844 31.5625 100.105469 31.5625 100.105469 C 31.5625 100.105469 24.234375 93.367188 23.820312 80.660156 C 36.214844 77.1875 44.234375 83.230469 44.234375 83.230469 C 44.234375 83.230469 42.953125 83.75 41.492188 84.757812 C 38.992188 83.609375 32.671875 81.042969 25.554688 81.804688 Z M 25.554688 81.804688 " fill-opacity="1" fill-rule="nonzero"/><path fill="#dcc023" d="M 116.320312 105.832031 C 116.320312 105.832031 115.140625 104.269531 113.820312 102.605469 C 115.171875 96.980469 116.910156 87.640625 115.035156 82.953125 C 104.929688 82.464844 97.359375 86.25 94.582031 87.882812 C 92.292969 87.117188 90.660156 86.597656 90.660156 86.597656 L 92.640625 85.484375 C 92.640625 85.484375 103.714844 79.859375 116.320312 80.660156 C 122.082031 90.695312 116.320312 105.832031 116.320312 105.832031 Z M 116.320312 105.832031 " fill-opacity="1" fill-rule="nonzero"/><path fill="#dcc023" d="M 22.394531 102.671875 C 22.394531 102.671875 15.867188 109.6875 15.660156 123.785156 C 17.117188 119.375 19.515625 117.640625 19.828125 117.152344 C 19.828125 117.152344 15.277344 125.519531 16.875 141.492188 C 6.703125 123.578125 13.367188 109.859375 13.367188 109.859375 L 14.167969 114.929688 C 15.796875 105.867188 22.394531 102.671875 22.394531 102.671875 Z M 22.394531 102.671875 " fill-opacity="1" fill-rule="nonzero"/><path fill="#dcc023" d="M 54.269531 117.847656 L 52.570312 117.359375 C 52.570312 117.359375 49.894531 123.578125 45.832031 125.730469 C 42.953125 127.257812 39.027344 129.269531 36.25 131.597656 C 37.394531 130.070312 39.234375 128.125 41.875 126.5625 C 46.875 123.609375 50.347656 116.945312 50.347656 116.945312 C 48.332031 113.714844 44.582031 112.328125 44.582031 112.328125 C 44.582031 112.328125 44.757812 112.292969 46.769531 111.945312 C 42.152344 111.421875 37.847656 112.082031 37.847656 112.082031 C 37.847656 112.082031 42.152344 109.132812 48.75 109.757812 C 52.257812 110.3125 54.269531 117.847656 54.269531 117.847656 Z M 54.269531 117.847656 " fill-opacity="1" fill-rule="nonzero"/><path fill="#dcc023" d="M 76.390625 122.117188 C 81.078125 119.132812 82.117188 117.570312 82.1875 117.5 C 82.046875 117.605469 77.222656 121.144531 72.015625 120.277344 C 68.332031 121.804688 67.394531 125.417969 67.394531 125.417969 C 67.394531 125.417969 61.25 127.359375 56.945312 134.617188 C 56.945312 134.617188 58.054688 125 66.5625 118.054688 C 63.367188 116.5625 63.367188 116.5625 63.367188 116.5625 C 63.367188 116.5625 70.140625 113.367188 73.125 112.570312 C 76.109375 111.769531 86.179688 115.140625 86.179688 115.140625 C 86.179688 115.140625 85.242188 119.269531 76.390625 122.117188 Z M 78.195312 133.4375 C 77.917969 129.515625 80.347656 125.140625 84.027344 122.671875 C 86.390625 121.109375 88.820312 115.902344 87.292969 110.867188 C 84.929688 109.617188 79.410156 106.910156 76.355469 107.222656 C 78.125 105.972656 78.367188 105.796875 78.402344 105.765625 C 78.089844 105.867188 65.070312 107.046875 57.742188 119.132812 C 59.445312 118.578125 61.285156 118.265625 61.285156 118.265625 C 61.179688 118.402344 55.382812 126.390625 51.320312 139.792969 C 54.304688 137.359375 55.902344 136.910156 56.5625 138.160156 L 56.632812 138.089844 C 56.632812 138.089844 62.605469 131.042969 67.082031 128.957031 C 66.355469 133.125 66.355469 133.125 66.355469 133.125 C 66.355469 133.125 73.195312 126.109375 75.660156 125 C 78.125 123.890625 76.285156 133.265625 76.285156 133.265625 L 71.910156 137.015625 L 75.660156 140 L 76.214844 144.234375 C 76.214844 144.234375 78.472656 139.339844 81.078125 136.355469 C 83.714844 133.367188 87.464844 127.257812 87.464844 127.257812 C 87.464844 127.257812 80.242188 130.695312 78.195312 133.4375 Z M 78.195312 133.4375 " fill-opacity="1" fill-rule="nonzero"/><path fill="#dcc023" d="M 71.910156 161.804688 C 71.910156 161.804688 69.445312 163.507812 62.605469 162.535156 C 61.457031 162.359375 60.171875 162.117188 58.785156 161.804688 C 48.992188 159.480469 44.203125 152.535156 44.167969 150.242188 C 44.132812 147.953125 48.644531 143.402344 48.644531 143.402344 C 48.644531 143.402344 52.984375 143.089844 55.382812 141.804688 C 57.882812 142.257812 61.457031 142.429688 65.207031 141.042969 C 66.390625 137.222656 69.582031 134.515625 69.757812 134.410156 C 69.652344 134.582031 67.742188 137.570312 67.917969 141.5625 C 67.953125 142.292969 68.054688 143.089844 68.230469 143.890625 C 65.660156 143.507812 62.671875 143.957031 62.671875 143.957031 C 62.671875 143.957031 63.785156 143.957031 68.402344 144.894531 C 69.027344 145.484375 69.582031 146.109375 70.070312 146.734375 C 75.105469 153.367188 71.910156 161.804688 71.910156 161.804688 Z M 71.910156 161.804688 " fill-opacity="1" fill-rule="nonzero"/><path fill="#8fa6c4" d="M 70.171875 182.429688 C 59.375 194.6875 60.730469 207.394531 68.679688 219.0625 C 68.507812 218.921875 55.070312 208.578125 59.097656 189.859375 C 59.757812 193.578125 61.25 198.507812 61.25 198.507812 C 61.25 198.507812 60.171875 188.890625 69.234375 179.757812 C 79.097656 169.792969 79.027344 160.625 79.027344 160.625 C 79.027344 160.625 80.9375 170.140625 70.171875 182.429688 Z M 70.171875 182.429688 " fill-opacity="1" fill-rule="nonzero"/><path fill="#8fa6c4" d="M 90.796875 160.625 C 84.097656 177.570312 83.160156 180.554688 87.082031 190.765625 C 87.082031 190.765625 76.769531 183.4375 85.519531 166.078125 C 94.269531 148.714844 86.179688 137.5 86.179688 137.5 C 86.179688 137.5 97.535156 143.679688 90.796875 160.625 Z M 90.796875 160.625 " fill-opacity="1" fill-rule="nonzero"/><path fill="#8fa6c4" d="M 93.402344 201.527344 C 79.757812 208.855469 80.554688 218.921875 80.554688 218.921875 C 80.484375 218.785156 76.042969 211.007812 89.0625 202.394531 C 102.1875 193.714844 104.304688 184.167969 104.304688 184.167969 C 104.304688 184.339844 106.910156 194.269531 93.402344 201.527344 Z M 93.402344 201.527344 " fill-opacity="1" fill-rule="nonzero"/><path fill="#8fa6c4" d="M 108.679688 188.019531 C 113.019531 174.339844 108.125 158.265625 108.125 158.265625 C 108.125 158.265625 106.285156 169.582031 101.667969 176.804688 C 106.875 154.410156 95.902344 138.855469 95.765625 138.679688 C 95.867188 138.785156 102.222656 143.367188 104.375 147.535156 C 101.109375 136.875 89.722656 123.542969 89.722656 123.542969 C 90.035156 123.785156 102.222656 133.679688 107.046875 150.035156 C 107.570312 145.207031 107.082031 141.804688 107.046875 141.667969 C 107.222656 141.980469 118.679688 165.9375 108.679688 188.019531 Z M 108.679688 188.019531 " fill-opacity="1" fill-rule="nonzero"/><path fill="#8fa6c4" d="M 103.992188 117.605469 C 97.464844 108.332031 88.265625 103.4375 88.089844 103.367188 C 88.195312 103.367188 93.855469 104.234375 100.867188 109.339844 C 96.042969 102.292969 84.894531 96.703125 84.894531 96.703125 C 84.894531 96.703125 95.070312 97.847656 103.367188 103.472656 C 93.507812 89.132812 77.015625 89.132812 77.015625 89.132812 C 77.015625 89.132812 95.9375 86.320312 106.25 105.832031 C 101.5625 104.167969 99.375 103.296875 99.304688 103.265625 C 99.410156 103.402344 104.445312 109.929688 107.742188 117.117188 C 102.777344 112.5 102.464844 112.222656 102.429688 112.222656 C 102.5 112.359375 107.152344 119.929688 108.265625 123.609375 C 98.089844 118.921875 90.035156 118.855469 90.035156 118.855469 C 90.035156 118.855469 96.25 115.796875 103.992188 117.605469 Z M 103.992188 117.605469 " fill-opacity="1" fill-rule="nonzero"/><path fill="#8fa6c4" d="M 102.984375 69.445312 C 102.984375 69.445312 95.347656 74.027344 92.640625 78.019531 C 92.777344 77.777344 95.070312 73.820312 97.605469 71.769531 C 87.5 75.140625 79.0625 85.765625 79.0625 85.765625 C 79.0625 85.765625 81.632812 78.265625 84.582031 75.695312 C 72.464844 78.890625 67.777344 88.609375 67.777344 88.609375 C 67.777344 88.609375 68.609375 77.984375 72.953125 73.265625 C 61.597656 80.902344 58.855469 87.917969 58.855469 87.917969 C 58.855469 87.917969 56.769531 80.695312 60.382812 72.292969 C 60.3125 72.605469 58.957031 78.75 59.546875 83.542969 C 64.929688 75.554688 76.007812 69.546875 76.179688 69.480469 C 76.144531 69.546875 73.855469 73.472656 72.917969 78.265625 C 83.609375 71.839844 91.632812 70.3125 91.632812 70.3125 C 91.632812 70.3125 87.464844 73.367188 86.597656 75.730469 C 94.167969 70.484375 102.984375 69.445312 102.984375 69.445312 Z M 102.984375 69.445312 " fill-opacity="1" fill-rule="nonzero"/><path fill="#8fa6c4" d="M 132.257812 191.144531 C 132.257812 191.144531 115.417969 182.8125 122.640625 164.894531 C 129.792969 147.152344 124.894531 134.757812 124.792969 134.546875 C 124.929688 134.722656 131.703125 143.019531 126.527344 160.242188 C 121.320312 177.671875 128.609375 187.117188 132.257812 191.144531 Z M 132.257812 191.144531 " fill-opacity="1" fill-rule="nonzero"/><path fill="#8fa6c4" d="M 63.679688 175.796875 C 62.394531 174.582031 57.394531 171.5625 57.394531 171.5625 C 57.394531 171.5625 57.570312 175.105469 59.929688 180.453125 C 56.492188 177.640625 52.222656 172.082031 52.222656 172.082031 C 52.222656 172.082031 51.214844 180.554688 53.160156 185.832031 C 47.570312 182.535156 45 172.359375 45 172.359375 C 45 172.359375 44.269531 176.492188 46.492188 180.484375 C 38.75 175.902344 37.1875 168.125 38.332031 160.207031 C 38.332031 160.207031 38.714844 169.269531 42.394531 174.0625 C 42.5 170.484375 43.402344 165.832031 43.402344 165.832031 C 43.402344 165.832031 46.632812 172.777344 49.027344 176.144531 C 48.785156 170.695312 49.445312 165.453125 49.445312 165.453125 C 49.445312 165.453125 52.847656 170.867188 55.484375 173.195312 C 54.757812 169.203125 54.617188 166.910156 54.617188 166.910156 C 54.617188 166.910156 58.75 168.578125 62.1875 171.769531 C 63.957031 170.695312 62.742188 167.535156 61.734375 165.453125 C 61.910156 165.484375 62.082031 165.554688 62.222656 165.589844 C 67.152344 167.257812 66.390625 170.730469 63.679688 175.796875 Z M 63.679688 175.796875 " fill-opacity="1" fill-rule="nonzero"/><path fill="#8fa6c4" d="M 71.910156 161.804688 C 71.910156 161.804688 69.445312 163.507812 62.605469 162.535156 C 61.457031 162.359375 60.171875 162.117188 58.785156 161.804688 C 48.992188 159.480469 44.203125 152.535156 44.167969 150.242188 C 44.132812 147.953125 48.644531 143.402344 48.644531 143.402344 C 48.644531 143.402344 47.394531 149.757812 49.6875 153.542969 C 52.015625 157.328125 60.519531 162.707031 71.910156 161.804688 Z M 71.910156 161.804688 " fill-opacity="1" fill-rule="nonzero"/><path fill="#8fa6c4" d="M 40.207031 156.527344 C 39.859375 157.328125 39.617188 157.917969 39.304688 158.160156 C 39.027344 158.367188 38.679688 158.332031 38.089844 157.953125 C 37.640625 157.671875 37.015625 157.152344 36.214844 156.390625 C 35.382812 155.242188 34.722656 154.0625 34.234375 152.8125 C 35.140625 153.992188 37.082031 156.421875 37.742188 156.144531 C 38.578125 155.765625 39.894531 153.4375 39.0625 151.355469 C 38.230469 149.304688 33.160156 140.730469 33.054688 140.589844 C 35.9375 142.671875 39.480469 147.015625 41.421875 150.035156 C 43.332031 152.984375 41.109375 154.546875 40.207031 156.527344 Z M 40.207031 156.527344 " fill-opacity="1" fill-rule="nonzero"/><path fill="#dcc023" d="M 276.25 187.015625 C 273.992188 187.046875 271.667969 186.980469 269.269531 186.875 C 249.894531 176.285156 247.917969 171.527344 247.917969 171.527344 L 238.4375 159.894531 C 238.4375 159.894531 270.589844 170 292.359375 165.695312 C 314.132812 161.390625 322.707031 146.214844 290.902344 113.785156 C 259.097656 81.355469 298.4375 80.695312 298.4375 80.695312 C 298.4375 80.695312 298.402344 80.695312 298.332031 80.730469 C 296.25 81.078125 265.171875 86.875 305.972656 117.917969 C 343.089844 146.109375 330.660156 186.421875 276.25 187.015625 Z M 276.25 187.015625 " fill-opacity="1" fill-rule="nonzero"/><path fill="#8fa6c4" d="M 276.25 187.015625 C 361.597656 167.359375 306.910156 125.417969 287.570312 105.207031 C 268.921875 85.730469 296.390625 81.007812 298.332031 80.730469 C 296.25 81.078125 265.171875 86.875 305.972656 117.917969 C 343.089844 146.109375 330.660156 186.421875 276.25 187.015625 Z M 276.25 187.015625 " fill-opacity="1" fill-rule="nonzero"/><path fill="#dcc023" d="M 296.144531 88.230469 C 296.144531 88.230469 305.902344 99.339844 318.75 86.875 C 331.597656 74.410156 339.339844 74.0625 339.339844 74.0625 C 339.339844 74.0625 327.984375 66.839844 315.554688 69.0625 C 321.667969 69.375 329.132812 72.953125 329.132812 72.953125 C 329.132812 72.953125 319.269531 84.582031 313.332031 87.359375 C 307.394531 90.140625 296.144531 88.230469 296.144531 88.230469 Z M 296.144531 88.230469 " fill-opacity="1" fill-rule="nonzero"/><path fill="#dcc023" d="M 146.320312 274.617188 C 143.296875 283.507812 143.296875 293.890625 143.296875 293.890625 C 143.296875 293.890625 139.929688 297.882812 136.667969 298.714844 C 134.0625 299.375 128.125 299.722656 125.902344 299.828125 C 126.109375 299.757812 132.359375 297.742188 134.6875 295.035156 C 137.015625 292.257812 141.25 280.765625 142.117188 273.195312 C 142.984375 265.730469 141.179688 256.527344 141.144531 256.214844 C 142.257812 259.546875 143.75 263.472656 145.902344 267.847656 C 146.910156 270 147.046875 272.429688 146.320312 274.617188 Z M 146.320312 274.617188 " fill-opacity="1" fill-rule="nonzero"/><path fill="#041636" d="M 6.703125 331.285156 L 7.117188 326.042969 C 7.1875 325.277344 7.953125 318.367188 15.3125 312.257812 C 18.890625 309.304688 23.4375 307.046875 28.855469 305.519531 C 34.582031 303.921875 37.535156 300 40.695312 295.867188 C 44.375 291.007812 48.542969 285.519531 56.839844 285.519531 C 59.6875 285.519531 62.8125 286.214844 66.320312 287.605469 C 79.339844 292.777344 99.375 296.25 116.25 296.25 C 122.292969 296.25 127.464844 295.796875 131.25 294.894531 C 136.632812 293.644531 141.527344 293.054688 146.667969 293.054688 C 158.125 293.054688 170.625 296.042969 189.757812 301.597656 C 198.296875 304.0625 205.765625 305.171875 213.890625 305.171875 C 219.792969 305.171875 225.589844 304.617188 232.292969 303.957031 C 240.347656 303.195312 249.515625 302.292969 261.179688 302.1875 C 262.015625 302.1875 262.882812 302.1875 263.714844 302.1875 C 264.410156 302.1875 265.140625 302.1875 265.867188 302.1875 C 270.972656 302.222656 276.527344 302.640625 282.359375 303.367188 C 309.546875 306.839844 336.910156 316.769531 346.5625 320.554688 C 348.714844 321.390625 350.867188 322.359375 352.953125 323.402344 L 368.820312 331.355469 L 6.703125 331.355469 Z M 6.703125 331.285156 " fill-opacity="1" fill-rule="nonzero"/><path fill="#041636" d="M 364.203125 327.292969 L 12.222656 327.292969 C 12.222656 327.292969 12.671875 321.597656 18.992188 316.390625 C 21.769531 314.097656 25.730469 311.875 31.320312 310.3125 C 49.445312 305.207031 46.597656 283.160156 67.257812 291.355469 C 87.917969 299.546875 121.945312 303.019531 138.230469 299.203125 C 154.515625 295.382812 167.359375 297.570312 196.875 306.144531 C 225.140625 314.339844 238.332031 307.292969 273.125 306.980469 C 274.6875 306.980469 276.285156 306.980469 277.953125 306.980469 C 283.367188 307.015625 288.957031 307.464844 294.582031 308.160156 C 328.890625 312.5 364.203125 327.292969 364.203125 327.292969 Z M 364.203125 327.292969 " fill-opacity="1" fill-rule="nonzero"/><path fill="#dcc023" d="M 261.214844 307.015625 C 257.015625 308.507812 252.917969 310 252.570312 310.070312 C 251.875 310.171875 240.554688 313.4375 237.707031 313.75 C 234.859375 314.0625 222.535156 320.171875 215 318.4375 C 207.464844 316.703125 197.882812 314.964844 197.882812 314.964844 L 182.117188 310.796875 L 186.179688 313.230469 C 186.179688 313.230469 183.230469 312.5 171.632812 309.480469 C 160.035156 306.421875 140.277344 309.269531 140.277344 309.269531 L 143.855469 305.695312 C 143.855469 305.695312 137.046875 306.804688 130.625 310.070312 C 124.203125 313.332031 111.804688 315.070312 101.703125 309.652344 C 91.632812 304.269531 75.242188 303.957031 75.242188 303.957031 C 75.242188 303.957031 75.242188 303.957031 82.777344 308.402344 C 77.394531 307.953125 60.171875 302.742188 49.0625 313.230469 C 40.382812 321.421875 24.792969 317.953125 18.4375 316.042969 C 21.109375 313.855469 24.894531 311.734375 30.207031 310.242188 C 47.5 305.382812 44.792969 284.304688 64.546875 292.152344 C 84.304688 300 116.804688 303.296875 132.359375 299.652344 C 147.917969 296.007812 160.207031 298.089844 188.402344 306.285156 C 215.347656 314.0625 227.984375 307.328125 261.214844 307.015625 Z M 261.214844 307.015625 " fill-opacity="1" fill-rule="nonzero"/><path fill="#dcc023" d="M 315 323.402344 C 304.722656 322.394531 300.660156 315.242188 298.820312 314.757812 C 297.777344 314.480469 289.234375 311.078125 281.769531 308.160156 C 314.582031 312.328125 348.296875 326.421875 348.296875 326.421875 L 311.875 318.921875 C 311.839844 318.921875 312.429688 321.875 315 323.402344 Z M 315 323.402344 " fill-opacity="1" fill-rule="nonzero"/><path fill="#dcc023" d="M 61.910156 316.457031 C 61.910156 316.457031 71.355469 311.390625 84.792969 313.472656 C 98.230469 315.519531 118.472656 319.582031 126.839844 318.75 C 110.105469 321.078125 86.390625 317.742188 86.390625 317.742188 L 93.644531 320.417969 C 93.679688 320.417969 79.929688 316.703125 61.910156 316.457031 Z M 61.910156 316.457031 " fill-opacity="1" fill-rule="nonzero"/><path fill="#dcc023" d="M 138.160156 318.054688 C 138.160156 318.054688 159.097656 307.777344 178.230469 316.007812 C 164.792969 315.207031 158.195312 318.054688 158.195312 318.054688 C 158.195312 318.054688 159.515625 316.734375 161.839844 315.453125 C 153.195312 314.339844 138.160156 318.054688 138.160156 318.054688 Z M 138.160156 318.054688 " fill-opacity="1" fill-rule="nonzero"/><path fill="#dcc023" d="M 237.292969 241.078125 C 233.957031 246.421875 233.4375 254.234375 235.902344 259.445312 C 235.902344 259.445312 235.9375 259.515625 236.007812 259.6875 C 236.667969 261.007812 237.535156 262.152344 238.609375 263.019531 C 244.480469 267.847656 243.75 269.652344 240.171875 274.582031 C 236.597656 279.515625 223.992188 286.042969 219.6875 293.507812 C 215.382812 300.972656 212.742188 303.054688 205.519531 302.015625 C 198.265625 300.972656 182.292969 303.054688 180.519531 299.582031 C 180.140625 298.855469 179.929688 298.195312 179.894531 297.605469 C 179.722656 295.453125 181.527344 293.679688 184.445312 289.722656 C 184.617188 289.515625 184.757812 289.304688 184.929688 289.097656 C 189.027344 283.542969 196.285156 288.265625 199.445312 287.535156 C 202.605469 286.804688 210.382812 279.757812 214.792969 270.519531 C 219.203125 261.285156 213.542969 250.972656 201.355469 238.367188 C 189.167969 225.765625 192.328125 217.359375 192.328125 217.359375 C 192.328125 217.359375 181.179688 212.429688 165.867188 219.234375 C 150.453125 226.042969 137.847656 226.769531 137.847656 226.769531 C 137.847656 226.769531 162.394531 220.277344 179.027344 205.3125 C 176.5625 210.9375 176.5625 210.9375 176.5625 210.9375 C 176.5625 210.9375 193.367188 204.234375 205.9375 199.929688 C 205.660156 200.3125 187.429688 222.640625 214.546875 247.464844 C 214.546875 247.464844 213.507812 243.609375 213.890625 237.707031 C 213.890625 237.707031 216.144531 251.632812 231.25 260.207031 C 231.25 260.207031 226.839844 248.820312 232.953125 240.519531 C 226.109375 231.527344 228.195312 217.117188 228.195312 217.117188 C 228.195312 217.117188 230 228.75 237.117188 237.359375 C 237.570312 240.140625 237.292969 241.078125 237.292969 241.078125 Z M 237.292969 241.078125 " fill-opacity="1" fill-rule="nonzero"/><path fill="#041636" d="M 302.359375 258.332031 C 298.644531 253.921875 289.894531 250.9375 274.894531 253.890625 C 253.4375 258.125 253.507812 256.285156 238.957031 243.402344 C 238.957031 243.402344 230.9375 233.332031 228.296875 217.152344 C 228.296875 217.152344 237.328125 239.894531 254.339844 248.089844 C 271.320312 256.320312 291.734375 242.984375 302.359375 258.332031 Z M 302.359375 258.332031 " fill-opacity="1" fill-rule="nonzero"/></svg>